<?xml version="1.0" standalone="no"?>
<!DOCTYPE svg PUBLIC "-//W3C//DTD SVG 20010904//EN"
 "http://www.w3.org/TR/2001/REC-SVG-20010904/DTD/svg10.dtd">
<svg version="1.0" xmlns="http://www.w3.org/2000/svg"
 width="418.000000pt" height="459.000000pt" viewBox="0 0 418.000000 459.000000"
 preserveAspectRatio="xMidYMid meet">

<g transform="translate(0.000000,459.000000) scale(0.100000,-0.100000)"
fill="#000000" stroke="none">
<path d="M550 4459 c-77 -11 -109 -25 -119 -51 -5 -13 -11 -119 -14 -235 l-6
-213 32 -9 c18 -5 26 -10 18 -10 -37 -3 -40 -29 -41 -309 l0 -274 88 6 c293
19 628 27 1215 30 276 1 471 6 476 12 28 30 221 276 221 281 0 8 -1017 -4
-1370 -17 -151 -5 -337 -11 -412 -13 l-138 -3 0 113 c0 106 1 113 23 127 28
18 100 18 93 -1 -3 -7 -1 -13 4 -13 6 0 10 8 10 19 0 15 10 19 53 24 180 21
972 28 1897 17 795 -10 1023 -19 1047 -43 8 -8 13 -59 14 -162 1 -149 1 -151
-35 -254 -21 -57 -36 -105 -34 -106 2 -2 43 -7 91 -11 l87 -7 3 184 c4 310 1
357 -18 379 -17 19 -17 20 -1 20 16 0 17 18 14 231 -3 223 -4 231 -25 248 -29
24 -114 39 -253 45 l-115 5 95 -14 c52 -7 113 -16 136 -20 l41 -7 6 -166 c4
-91 7 -197 7 -235 l0 -69 -412 8 c-227 5 -937 8 -1578 6 l-1165 -3 3 203 c2
112 6 210 9 218 3 8 6 18 5 22 -3 12 62 28 164 42 l99 14 -80 0 c-44 0 -105
-4 -135 -9z m350 -876 c-1 -25 -24 -53 -44 -53 -21 0 -20 12 5 44 24 30 39 34
39 9z m50 -2 c16 -30 12 -51 -9 -51 -20 0 -31 18 -31 51 0 25 26 25 40 0z
m730 9 c0 -13 -19 -22 -53 -26 -36 -5 -34 -4 -39 -29 -2 -17 3 -21 35 -23 24
-2 37 -8 37 -18 0 -19 -106 -20 -113 -1 -3 9 -7 9 -18 0 -8 -6 -35 -14 -61
-17 -60 -7 -73 7 -64 69 6 36 11 45 27 45 16 0 19 -5 15 -20 -3 -11 -9 -29
-12 -40 -5 -17 -1 -20 31 -20 36 0 38 3 49 53 4 18 13 27 26 27 14 0 18 -5 13
-17 -5 -17 -5 -17 8 -1 8 9 28 18 44 20 17 2 40 4 53 5 12 2 22 -1 22 -7z
m151 -13 c8 -12 -6 -64 -22 -83 -9 -11 -29 -14 -73 -12 l-61 3 -3 37 c-2 27 3
43 18 58 19 19 28 20 78 14 31 -4 60 -11 63 -17z m161 -12 c-2 -11 -9 -25 -17
-31 -9 -7 -10 -15 -4 -25 23 -37 -14 -41 -43 -4 -11 14 -26 25 -34 25 -8 0
-20 -11 -26 -25 -15 -32 -43 -34 -34 -2 3 12 6 28 6 35 0 8 19 12 60 12 33 0
60 4 60 10 0 6 -25 10 -55 10 -48 0 -65 7 -51 21 2 2 35 2 73 -1 61 -4 68 -7
65 -25z m-898 14 c-5 -8 -1 -8 14 0 11 6 45 10 76 10 l55 -2 -6 -43 c-6 -44
-6 -44 26 -44 21 0 31 -5 31 -15 0 -19 -70 -21 -88 -3 -9 9 -12 9 -12 -1 0 -9
-15 -12 -55 -9 -30 1 -55 -1 -55 -5 0 -4 -21 -7 -47 -5 -47 3 -48 3 -51 40 -5
56 11 76 61 81 23 2 46 4 50 5 5 1 5 -3 1 -9z m244 -31 c-3 -40 -1 -43 26 -48
50 -9 44 -30 -8 -30 -46 0 -71 21 -62 52 2 7 7 25 10 41 4 15 13 27 21 27 12
0 15 -10 13 -42z m-425 -14 c9 -9 -4 -34 -18 -34 -9 0 -11 -8 -7 -22 5 -21 6
-21 13 -2 10 28 38 49 49 38 6 -6 2 -22 -10 -42 -33 -53 -100 -39 -100 22 0 9
8 16 19 16 10 0 21 7 25 15 6 16 18 19 29 9z"/>
<path d="M1723 3563 c-7 -2 -13 -16 -13 -29 0 -21 4 -24 39 -24 31 0 41 4 46
20 3 11 3 24 0 30 -6 10 -50 12 -72 3z"/>
<path d="M1130 3550 c-11 -7 -4 -10 28 -10 23 0 42 5 42 10 0 13 -50 13 -70 0z"/>
<path d="M1018 3526 c-4 -21 -1 -25 29 -28 30 -4 33 -2 33 24 0 24 -4 28 -29
28 -22 0 -30 -5 -33 -24z"/>
<path d="M1128 3503 c12 -2 32 -2 45 0 12 2 2 4 -23 4 -25 0 -35 -2 -22 -4z"/>
<path d="M576 4372 c-4 -13 -4 -61 0 -105 7 -76 8 -79 16 -46 12 46 -3 187
-16 151z"/>
<path d="M2696 3611 c-31 -39 -81 -102 -110 -140 -30 -38 -52 -71 -49 -75 4
-3 75 -6 159 -6 l152 0 97 136 c54 74 94 138 91 141 -4 4 -69 9 -145 11 l-138
4 -57 -71z"/>
<path d="M3276 3607 c-16 -28 -53 -89 -82 -134 -29 -45 -50 -84 -46 -87 4 -2
58 -5 119 -5 l113 -2 65 132 c36 72 65 135 65 140 0 5 -46 9 -102 9 l-103 0
-29 -53z"/>
<path d="M2230 3380 c-6 -11 -21 -20 -35 -20 -13 0 -26 -4 -29 -9 -3 -4 7 -6
22 -3 26 4 83 52 63 52 -6 0 -15 -9 -21 -20z"/>
<path d="M3655 3330 c-3 -5 1 -10 9 -10 9 0 16 5 16 10 0 6 -4 10 -9 10 -6 0
-13 -4 -16 -10z"/>
<path d="M426 3305 c-4 -10 1 -15 14 -15 13 0 18 5 14 15 -4 8 -10 15 -14 15
-4 0 -10 -7 -14 -15z"/>
<path d="M470 3307 c0 -8 7 -14 15 -14 8 0 15 6 15 14 0 7 -7 13 -15 13 -8 0
-15 -6 -15 -13z"/>
<path d="M2118 3303 c7 -3 16 -2 19 1 4 3 -2 6 -13 5 -11 0 -14 -3 -6 -6z"/>
<path d="M2232 3290 c-7 -11 -22 -20 -33 -20 -21 0 -48 -25 -49 -45 0 -5 7 1
16 13 8 12 23 22 33 22 10 0 26 9 35 19 10 11 28 22 40 24 18 4 18 4 -4 6 -15
0 -30 -7 -38 -19z"/>
<path d="M3646 3291 c-4 -7 -5 -15 -2 -18 9 -9 19 4 14 18 -4 11 -6 11 -12 0z"/>
<path d="M3658 3223 c-6 -16 -10 -35 -9 -43 1 -9 -10 -52 -24 -95 -15 -44 -27
-87 -27 -95 -1 -15 54 -203 72 -247 7 -18 18 -23 45 -23 34 0 35 1 35 38 0 46
-9 82 -21 82 -5 0 -9 -8 -9 -17 0 -14 -2 -15 -9 -4 -7 11 -9 11 -14 0 -3 -8
-6 0 -6 16 -1 23 2 26 9 15 6 -10 10 -11 10 -3 0 7 3 12 8 12 23 -4 32 4 32
31 0 22 -4 28 -15 24 -13 -5 -15 7 -13 82 l2 89 3 -72 c6 -108 23 -89 23 23 0
81 -2 95 -15 90 -10 -4 -15 1 -15 14 0 11 7 20 15 20 11 0 15 12 15 45 l0 45
-40 0 c-35 0 -42 -4 -52 -27z m39 -100 c-3 -10 -5 -4 -5 12 0 17 2 24 5 18 2
-7 2 -21 0 -30z m0 -170 c-2 -27 -3 -5 -3 47 0 52 1 74 3 48 2 -27 2 -69 0
-95z"/>
<path d="M1294 3220 c-267 -16 -371 -58 -418 -171 -45 -108 -106 -653 -85
-766 27 -146 100 -170 549 -180 422 -9 562 11 657 91 49 43 90 131 109 234 22
124 40 112 -163 112 l-178 0 -20 -63 c-18 -55 -25 -64 -60 -82 -37 -18 -60
-20 -300 -20 -341 0 -341 0 -337 160 2 105 35 284 62 340 37 76 54 80 350 80
215 -1 261 -3 293 -17 36 -16 37 -19 37 -67 l0 -51 179 0 c208 0 188 -14 197
140 7 115 -6 161 -57 202 -64 52 -116 60 -414 63 -148 1 -329 -1 -401 -5z"/>
<path d="M2076 3211 c-3 -5 1 -12 10 -15 8 -3 12 -2 9 3 -3 5 7 12 22 14 27 4
27 4 -4 6 -17 0 -34 -3 -37 -8z"/>
<path d="M2862 3154 c-123 -82 -303 -194 -492 -304 -96 -57 -176 -104 -178
-105 -7 -6 -70 -421 -64 -426 4 -3 205 -3 447 0 242 3 441 5 443 5 2 -1 -3
-46 -12 -100 -8 -55 -13 -100 -12 -102 2 -1 61 1 132 5 l129 8 12 95 c6 52 12
96 12 98 1 1 18 2 39 2 20 0 53 3 73 6 l36 6 6 74 c4 41 10 92 13 114 l7 40
-72 0 c-67 0 -71 1 -71 23 0 12 15 152 33 311 23 194 30 289 23 291 -6 2 -105
5 -219 7 l-208 4 -77 -52z m227 -326 c-10 -73 -21 -161 -25 -194 l-6 -61 -102
-7 c-118 -8 -325 -7 -412 3 -56 5 -61 8 -54 26 5 12 84 67 191 132 101 62 225
139 274 172 62 42 100 61 121 61 l31 0 -18 -132z"/>
<path d="M480 3180 c0 -5 5 -10 10 -10 6 0 10 5 10 10 0 6 -4 10 -10 10 -5 0
-10 -4 -10 -10z"/>
<path d="M2120 3187 c0 -3 11 -18 25 -32 13 -15 29 -42 35 -61 10 -28 14 -32
29 -24 10 5 26 22 35 37 l17 28 -23 -27 c-13 -16 -27 -28 -30 -28 -7 0 -38 58
-38 71 0 4 12 10 28 12 20 4 17 5 -9 4 -20 -1 -44 5 -53 12 -9 7 -16 11 -16 8z"/>
<path d="M3420 3165 c0 -8 5 -15 10 -15 6 0 10 7 10 15 0 8 -4 15 -10 15 -5 0
-10 -7 -10 -15z"/>
<path d="M475 3040 c-9 -27 4 -102 16 -94 12 7 12 114 0 114 -5 0 -13 -9 -16
-20z"/>
<path d="M2189 3008 c0 -18 -2 -40 -3 -48 -2 -8 -7 -41 -10 -73 -5 -34 -15
-66 -25 -76 -17 -17 -15 -18 34 -19 40 -1 52 2 52 14 0 10 -4 11 -11 4 -5 -5
-19 -10 -29 -10 -17 0 -18 5 -13 43 11 80 18 197 12 197 -3 0 -6 -15 -7 -32z"/>
<path d="M2230 3008 c-15 -21 -17 -28 -6 -19 16 13 41 51 33 51 -2 0 -14 -15
-27 -32z"/>
<path d="M441 3004 c0 -11 3 -14 6 -6 3 7 2 16 -1 19 -3 4 -6 -2 -5 -13z"/>
<path d="M2236 2924 c-9 -25 -7 -29 7 -12 6 9 21 18 32 21 16 4 14 5 -6 6 -16
1 -29 -5 -33 -15z"/>
<path d="M2273 2853 c-18 -2 -33 -7 -33 -11 0 -13 60 -7 65 6 2 6 3 11 2 10
-1 0 -17 -3 -34 -5z"/>
<path d="M480 2816 c0 -14 5 -26 10 -26 6 0 10 9 10 19 0 11 -4 23 -10 26 -6
4 -10 -5 -10 -19z"/>
<path d="M2083 2793 c9 -2 23 -2 30 0 6 3 -1 5 -18 5 -16 0 -22 -2 -12 -5z"/>
<path d="M2122 2756 c-18 -7 -39 -23 -48 -37 l-16 -24 20 23 c11 12 29 22 40
22 11 0 25 7 32 15 7 8 11 14 9 14 -2 -1 -19 -7 -37 -13z"/>
<path d="M2159 2744 c-4 -42 -7 -61 -14 -76 -4 -11 -3 -18 3 -18 12 0 28 87
18 97 -3 4 -6 2 -7 -3z"/>
<path d="M480 2620 c0 -11 5 -20 10 -20 6 0 10 9 10 20 0 11 -4 20 -10 20 -5
0 -10 -9 -10 -20z"/>
<path d="M2141 2604 c0 -11 3 -14 6 -6 3 7 2 16 -1 19 -3 4 -6 -2 -5 -13z"/>
<path d="M3710 2611 c0 -5 4 -12 10 -16 5 -3 6 -13 3 -22 -4 -11 -3 -14 5 -9
14 9 10 48 -6 54 -7 2 -12 -1 -12 -7z"/>
<path d="M2093 2563 c9 -2 25 -2 35 0 9 3 1 5 -18 5 -19 0 -27 -2 -17 -5z"/>
<path d="M3711 2513 c8 -9 13 -26 11 -37 -2 -19 -1 -19 8 -4 12 20 -2 58 -22
58 -6 0 -5 -6 3 -17z"/>
<path d="M3690 2480 c0 -5 5 -10 11 -10 5 0 7 5 4 10 -3 6 -8 10 -11 10 -2 0
-4 -4 -4 -10z"/>
<path d="M480 2425 c0 -14 5 -25 10 -25 6 0 10 11 10 25 0 14 -4 25 -10 25 -5
0 -10 -11 -10 -25z"/>
<path d="M3707 2444 c-3 -5 1 -15 9 -22 16 -14 18 -5 5 17 -5 7 -11 9 -14 5z"/>
<path d="M3668 2433 c7 -3 16 -2 19 1 4 3 -2 6 -13 5 -11 0 -14 -3 -6 -6z"/>
<path d="M3645 2390 c3 -5 8 -10 11 -10 2 0 4 5 4 10 0 6 -5 10 -11 10 -5 0
-7 -4 -4 -10z"/>
<path d="M3685 2390 c3 -5 8 -10 11 -10 2 0 4 5 4 10 0 6 -5 10 -11 10 -5 0
-7 -4 -4 -10z"/>
<path d="M3720 2389 c0 -5 5 -7 10 -4 6 3 10 8 10 11 0 2 -4 4 -10 4 -5 0 -10
-5 -10 -11z"/>
<path d="M3713 2363 c-15 -5 -17 -23 -4 -23 5 0 11 7 15 15 3 8 4 15 3 14 -1
0 -8 -3 -14 -6z"/>
<path d="M3660 2345 c0 -9 6 -12 15 -9 8 4 12 10 9 15 -8 14 -24 10 -24 -6z"/>
<path d="M2082 2291 c-7 -18 -7 -29 -2 -26 6 4 10 12 10 18 0 9 32 12 112 11
l113 0 -105 3 c-59 2 -107 8 -111 14 -3 6 -11 -3 -17 -20z"/>
<path d="M3645 2309 c-10 -15 3 -25 16 -12 7 7 7 13 1 17 -6 3 -14 1 -17 -5z"/>
<path d="M3715 2301 c-3 -5 -1 -12 4 -15 5 -3 11 1 15 9 6 16 -9 21 -19 6z"/>
<path d="M3660 2260 c-8 -5 -11 -12 -7 -16 4 -4 13 -2 19 4 15 15 7 24 -12 12z"/>
<path d="M3700 2260 c0 -5 7 -10 16 -10 8 0 12 5 9 10 -3 6 -10 10 -16 10 -5
0 -9 -4 -9 -10z"/>
<path d="M3720 2218 c0 -12 3 -18 7 -14 11 10 12 36 2 36 -5 0 -9 -10 -9 -22z"/>
<path d="M3637 2224 c-8 -8 1 -24 14 -24 5 0 9 7 9 15 0 15 -12 20 -23 9z"/>
<path d="M3688 2213 c7 -3 16 -2 19 1 4 3 -2 6 -13 5 -11 0 -14 -3 -6 -6z"/>
<path d="M3705 2181 c-3 -5 -1 -12 5 -16 5 -3 10 1 10 9 0 18 -6 21 -15 7z"/>
<path d="M3660 2165 c-14 -16 -10 -18 14 -9 9 3 16 10 16 15 0 14 -16 11 -30
-6z"/>
<path d="M3724 2133 c-3 -10 -10 -26 -15 -35 -5 -10 -5 -19 0 -23 9 -5 18 13
26 54 5 25 -3 28 -11 4z"/>
<path d="M3640 2125 c0 -9 5 -15 11 -13 6 2 11 8 11 13 0 5 -5 11 -11 13 -6 2
-11 -4 -11 -13z"/>
<path d="M3685 2120 c3 -5 8 -10 11 -10 2 0 4 5 4 10 0 6 -5 10 -11 10 -5 0
-7 -4 -4 -10z"/>
<path d="M3651 2063 c-14 -30 -14 -33 -5 -32 4 0 11 -5 16 -13 7 -9 8 -4 5 15
-3 17 1 34 10 43 12 12 12 14 0 14 -7 0 -19 -12 -26 -27z"/>
<path d="M3697 2053 c-10 -9 -9 -23 1 -23 5 0 9 7 9 15 0 17 -1 18 -10 8z"/>
<path d="M3722 2035 c0 -16 2 -22 5 -12 2 9 2 23 0 30 -3 6 -5 -1 -5 -18z"/>
<path d="M3649 1983 c-10 -11 -10 -14 -1 -9 6 4 12 3 12 -3 0 -5 -8 -14 -17
-20 -17 -9 -17 -10 0 -17 22 -8 23 -7 32 34 7 35 -4 42 -26 15z"/>
<path d="M3710 1990 c0 -5 5 -10 11 -10 5 0 7 5 4 10 -3 6 -8 10 -11 10 -2 0
-4 -4 -4 -10z"/>
<path d="M568 1983 c7 -3 16 -2 19 1 4 3 -2 6 -13 5 -11 0 -14 -3 -6 -6z"/>
<path d="M3685 1940 c3 -5 12 -7 20 -3 10 3 15 -1 15 -12 0 -9 -4 -13 -10 -10
-5 3 -10 -1 -10 -9 0 -25 17 -27 24 -3 10 39 7 47 -20 47 -14 0 -23 -4 -19
-10z"/>
<path d="M937 1933 c-4 -3 -7 -21 -7 -39 0 -28 4 -32 30 -36 37 -6 45 0 54 36
5 20 3 32 -6 37 -16 10 -62 12 -71 2z m61 -35 c-2 -17 -11 -24 -30 -26 -24 -3
-28 0 -28 22 0 22 4 26 31 26 26 0 30 -3 27 -22z"/>
<path d="M3160 1926 c0 -7 -3 -27 -6 -43 -6 -28 -5 -29 30 -25 20 2 36 8 36
12 0 4 -12 5 -27 2 -25 -5 -26 -4 -20 32 3 20 2 36 -4 36 -5 0 -9 -6 -9 -14z"/>
<path d="M1227 1893 c-6 -36 1 -61 10 -35 7 17 50 15 57 -4 10 -26 23 -7 24
36 l2 40 -44 0 c-42 0 -44 -1 -49 -37z m71 5 c-3 -7 -13 -13 -23 -13 -10 0
-20 6 -22 13 -3 7 5 12 22 12 17 0 25 -5 23 -12z"/>
<path d="M2856 1889 c-26 -40 -28 -65 -4 -41 15 15 50 16 65 1 17 -17 23 4 12
44 -13 50 -38 48 -73 -4z m44 -13 c-14 -14 -22 -2 -14 18 5 14 9 15 15 4 4 -7
4 -17 -1 -22z"/>
<path d="M1560 1903 c0 -10 -3 -28 -6 -40 -5 -17 -2 -23 10 -23 10 0 16 9 16
24 0 13 3 31 6 40 4 11 1 16 -10 16 -9 0 -16 -8 -16 -17z"/>
<path d="M1832 1888 c-12 -44 1 -58 52 -58 51 0 66 13 66 57 l0 33 -55 0 c-53
0 -55 -1 -63 -32z m93 2 c4 -6 -6 -10 -22 -10 -27 -1 -27 -1 -9 -15 19 -14 19
-15 -7 -15 -22 0 -27 5 -27 25 0 21 5 25 29 25 17 0 33 -4 36 -10z"/>
<path d="M2200 1906 c0 -7 -3 -28 -6 -45 -6 -27 -4 -31 15 -31 11 0 21 6 21
14 0 7 3 28 6 45 6 27 4 31 -15 31 -11 0 -21 -6 -21 -14z"/>
<path d="M2487 1913 c-3 -5 -7 -23 -9 -42 -4 -44 18 -53 27 -11 l7 31 20 -26
c26 -34 68 -34 68 -1 0 13 3 31 6 40 4 11 1 16 -10 16 -10 0 -16 -9 -16 -25 0
-14 -4 -25 -8 -25 -5 0 -15 11 -22 25 -13 24 -53 35 -63 18z"/>
<path d="M3656 1896 c3 -7 -2 -21 -11 -30 -15 -14 -15 -16 -1 -16 9 0 16 5 16
12 0 6 7 20 17 30 15 17 15 18 -5 18 -14 0 -20 -5 -16 -14z"/>
<path d="M568 1893 c7 -3 16 -2 19 1 4 3 -2 6 -13 5 -11 0 -14 -3 -6 -6z"/>
<path d="M3685 1860 c-3 -5 1 -10 10 -10 9 0 13 5 10 10 -3 6 -8 10 -10 10 -2
0 -7 -4 -10 -10z"/>
<path d="M3700 1821 c0 -5 5 -13 10 -16 6 -3 10 -2 10 4 0 5 -4 13 -10 16 -5
3 -10 2 -10 -4z"/>
<path d="M3665 1810 c-3 -5 -1 -10 4 -10 6 0 11 5 11 10 0 6 -2 10 -4 10 -3 0
-8 -4 -11 -10z"/>
<path d="M3687 1786 c-4 -9 -4 -23 0 -33 5 -14 8 -12 15 7 5 13 5 27 0 32 -6
6 -12 3 -15 -6z"/>
<path d="M2208 1783 c7 -3 16 -2 19 1 4 3 -2 6 -13 5 -11 0 -14 -3 -6 -6z"/>
<path d="M3635 1771 c-6 -11 9 -23 19 -14 9 9 7 23 -3 23 -6 0 -12 -4 -16 -9z"/>
<path d="M2273 1723 c-17 -2 -34 -12 -38 -21 -5 -14 -4 -15 6 -4 7 6 23 12 35
12 13 0 26 5 29 10 3 6 5 9 3 8 -2 0 -17 -3 -35 -5z"/>
<path d="M3660 1720 c0 -6 5 -9 12 -7 9 1 11 -17 9 -68 -1 -38 -2 -85 -2 -102
1 -18 -4 -33 -10 -33 -7 0 -10 18 -7 48 3 43 1 48 -14 44 -13 -3 -18 -15 -18
-43 0 -22 1 -41 3 -43 1 -2 -10 -14 -25 -26 -16 -12 -29 -31 -29 -43 -1 -16
-3 -14 -8 8 -6 28 -9 30 -58 33 -69 4 -120 -18 -137 -60 -17 -39 -31 -205 -21
-236 6 -20 13 -22 79 -22 83 0 104 11 116 60 7 31 8 32 9 8 1 -31 25 -58 50
-58 12 0 17 -7 16 -22 -2 -22 -6 -24 -53 -27 -13 -1 -26 -10 -32 -23 -7 -18
-9 -19 -9 -5 -1 9 -6 17 -12 17 -7 0 -9 -9 -5 -22 3 -13 6 -31 6 -41 0 -23 18
-13 30 17 l9 21 0 -22 c1 -23 31 -34 31 -11 0 8 5 7 16 -3 12 -13 16 -45 17
-167 l2 -151 -45 -46 c-24 -25 -52 -48 -62 -51 -10 -3 -16 -9 -13 -14 3 -5 1
-11 -5 -15 -5 -3 -10 -1 -10 4 0 6 -7 11 -15 11 -8 0 -15 -7 -15 -16 0 -27
-28 -46 -60 -42 -21 3 -27 1 -20 -7 6 -8 -2 -11 -28 -13 -58 -2 -96 -7 -107
-13 -5 -3 -39 -6 -75 -8 -36 -1 -94 -6 -130 -11 -36 -5 -126 -12 -200 -15 -74
-4 -155 -8 -180 -11 -88 -9 -1047 -4 -1150 6 -146 14 -211 19 -317 25 -190 10
-291 25 -473 71 -8 2 -31 7 -50 12 -20 5 -47 15 -60 22 -14 7 -26 13 -27 12
-12 -8 -20 1 -16 17 3 11 -3 24 -15 32 -10 8 -23 25 -27 39 -12 36 -8 887 5
930 12 43 13 40 -4 40 -10 0 -21 -29 -35 -91 -12 -50 -21 -97 -21 -105 0 -8
-10 -14 -25 -14 l-26 0 3 -337 c3 -326 4 -340 25 -383 13 -25 34 -57 48 -72
29 -31 31 -41 10 -58 -8 -7 -15 -16 -15 -21 0 -25 168 -84 280 -99 36 -5 115
-16 175 -25 168 -24 365 -43 520 -50 77 -3 237 -11 355 -17 339 -17 1022 10
1435 57 88 10 265 62 328 96 20 11 37 17 37 14 0 -4 13 3 30 15 26 19 28 23
18 46 -10 21 -8 29 10 52 69 86 74 133 66 618 -4 217 -10 395 -13 395 -38 7
-71 7 -71 -1z m-3174 -277 c-3 -10 -6 -35 -8 -55 -1 -20 -5 -35 -9 -33 -9 6 6
105 17 105 3 0 3 -8 0 -17z m3034 -33 c0 -5 11 -10 25 -10 24 0 25 -3 24 -52
-1 -34 -4 -42 -6 -23 -3 17 -10 36 -16 44 -15 18 -92 9 -117 -14 -19 -18 -20
-17 -20 8 0 14 7 33 16 41 17 18 94 22 94 6z m147 -82 c-2 -18 -4 -4 -4 32 0
36 2 50 4 33 2 -18 2 -48 0 -65z m-40 50 c-3 -7 -5 -2 -5 12 0 14 2 19 5 13 2
-7 2 -19 0 -25z m1 -62 c-3 -51 -18 -52 -18 -2 0 29 6 46 16 46 2 0 3 -20 2
-44z m-118 -36 c0 -24 -18 -36 -62 -44 -41 -7 -53 3 -44 39 5 18 14 25 39 27
47 5 67 -2 67 -22z m77 -625 c0 -8 -4 -12 -9 -9 -5 3 -6 10 -3 15 9 13 12 11
12 -6z"/>
<path d="M568 1713 c7 -3 16 -2 19 1 4 3 -2 6 -13 5 -11 0 -14 -3 -6 -6z"/>
<path d="M430 1631 c0 -34 4 -61 10 -61 6 0 10 24 10 54 0 30 -4 58 -10 61 -6
4 -10 -17 -10 -54z"/>
<path d="M3640 1680 c-13 -8 -12 -10 3 -10 9 0 17 5 17 10 0 12 -1 12 -20 0z"/>
<path d="M2186 1668 c-57 -12 -55 -16 11 -17 32 0 54 3 48 7 -5 4 -12 10 -15
13 -3 3 -23 2 -44 -3z"/>
<path d="M2318 1663 c6 -2 18 -2 25 0 6 3 1 5 -13 5 -14 0 -19 -2 -12 -5z"/>
<path d="M430 1531 c0 -6 5 -13 10 -16 6 -3 10 1 10 9 0 9 -4 16 -10 16 -5 0
-10 -4 -10 -9z"/>
<path d="M3287 1473 c-2 -5 -7 -20 -11 -35 -6 -26 -4 -28 21 -27 17 1 21 3 11
6 -10 2 -18 9 -18 14 0 5 8 9 18 10 14 0 14 2 -3 9 -17 7 -17 9 -2 9 9 1 17 6
17 11 0 12 -27 14 -33 3z"/>
<path d="M1636 1405 l-44 -60 136 -6 c165 -7 868 -2 899 7 19 5 63 56 97 112
7 12 -79 13 -518 10 l-526 -3 -44 -60z m154 26 c0 -5 -7 -11 -15 -15 -8 -3
-15 -14 -15 -25 0 -11 -4 -23 -10 -26 -6 -4 -10 7 -10 24 0 17 -4 31 -10 31
-5 0 -10 5 -10 10 0 6 16 10 35 10 19 0 35 -4 35 -9z m51 -21 c11 0 22 7 25
15 11 28 24 15 17 -17 -6 -37 -23 -62 -23 -35 0 22 -29 22 -46 0 -12 -16 -13
-14 -14 18 0 37 13 62 18 35 2 -9 12 -16 23 -16z m129 20 c0 -5 -15 -11 -32
-11 -31 -2 -31 -2 -5 -6 15 -2 27 -9 27 -14 0 -5 -12 -10 -27 -10 l-28 -1 30
-7 c34 -7 25 -17 -19 -19 -25 -2 -28 1 -22 21 3 12 6 30 6 40 0 13 8 17 35 17
19 0 35 -4 35 -10z m305 -8 c-28 -4 -44 -16 -45 -34 0 -5 14 -8 31 -8 17 0 28
4 24 10 -3 6 -1 10 5 10 7 0 10 -6 8 -12 -3 -7 -22 -14 -43 -16 -35 -3 -37 -2
-31 20 3 13 6 26 6 30 0 9 42 15 60 8 9 -3 3 -6 -15 -8z m58 -19 c-3 -18 -9
-33 -13 -33 -7 0 -5 24 6 59 8 24 12 7 7 -26z m66 10 l20 -28 1 28 c0 15 5 27
11 27 6 0 8 -7 5 -16 -3 -9 -6 -24 -6 -34 0 -29 -29 -33 -42 -5 -14 31 -25 32
-31 3 -3 -18 -5 -16 -6 8 -2 51 17 58 48 17z m111 24 c0 -1 4 -16 9 -33 l9
-31 -44 1 c-41 1 -42 2 -30 21 7 11 16 26 20 33 6 10 36 18 36 9z m54 -22 c-5
-21 -3 -25 15 -25 12 0 21 -4 21 -10 0 -5 -13 -10 -30 -10 -31 0 -38 17 -24
54 10 26 25 18 18 -9z m-482 -12 c-6 -32 -18 -43 -49 -43 -27 0 -37 14 -29 46
5 20 12 24 45 24 36 0 38 -1 33 -27z m68 18 c-25 -4 -34 -11 -32 -23 1 -9 -2
-19 -8 -23 -11 -7 -13 15 -4 39 4 11 18 16 43 15 l36 -2 -35 -6z m51 -27 c-5
-16 -10 -21 -10 -12 -1 18 10 51 15 45 2 -1 -1 -16 -5 -33z m-35 -4 c0 -12 -4
-16 -9 -11 -5 5 -6 14 -3 20 10 15 12 14 12 -9z"/>
<path d="M2487 1413 c-4 -3 -7 -11 -7 -17 0 -6 5 -5 12 2 6 6 9 14 7 17 -3 3
-9 2 -12 -2z"/>
<path d="M2017 1406 c-7 -19 1 -26 30 -26 16 0 23 6 23 20 0 14 -7 20 -24 20
-13 0 -26 -6 -29 -14z"/>
<path d="M3064 1463 c-15 -3 -23 -13 -26 -34 -5 -34 -2 -39 28 -39 27 0 31 5
35 44 4 31 -2 36 -37 29z m26 -33 c0 -13 -7 -20 -20 -20 -13 0 -20 7 -20 20 0
13 7 20 20 20 13 0 20 -7 20 -20z"/>
<path d="M3127 1463 c-14 -13 -6 -33 13 -33 11 0 20 -5 20 -11 0 -7 -10 -9
-25 -7 -14 3 -25 1 -25 -4 0 -5 12 -8 27 -6 34 4 46 38 13 38 -12 0 -18 4 -15
11 4 6 13 8 21 5 8 -3 14 -1 14 4 0 11 -33 14 -43 3z"/>
<path d="M3187 1457 c-4 -10 -7 -28 -6 -40 0 -21 1 -21 10 2 5 14 8 32 7 40
-3 13 -5 13 -11 -2z"/>
<path d="M3215 1438 c9 -39 11 -42 23 -34 14 8 33 66 23 66 -5 0 -12 -10 -15
-22 l-7 -23 -9 23 c-14 33 -23 27 -15 -10z"/>
<path d="M2918 1449 c-11 -6 -18 -22 -18 -42 0 -18 4 -27 8 -21 4 7 16 13 27
15 13 3 21 14 23 32 4 29 -10 34 -40 16z m32 -19 c0 -5 -7 -10 -15 -10 -8 0
-15 5 -15 10 0 6 7 10 15 10 8 0 15 -4 15 -10z"/>
<path d="M2981 1450 c0 -8 -4 -25 -7 -37 -5 -20 -2 -23 20 -23 14 0 26 4 26
10 0 5 -6 7 -14 4 -11 -4 -16 4 -19 28 -2 18 -5 26 -6 18z"/>
<path d="M2740 1438 c0 -7 -3 -23 -6 -35 -6 -21 -3 -23 27 -22 24 1 27 3 12 6
-32 6 -29 23 5 24 l27 1 -30 8 c-29 7 -28 9 15 23 8 3 0 6 -17 6 -20 1 -33 -4
-33 -11z"/>
<path d="M2830 1431 c6 -11 3 -22 -7 -33 -9 -10 -11 -18 -5 -18 6 0 14 5 17
10 5 8 11 7 21 -1 18 -15 32 -3 16 13 -9 9 -8 16 4 29 14 16 13 17 -20 16 -28
-1 -33 -4 -26 -16z"/>
<path d="M624 1195 c0 -82 2 -115 3 -72 2 43 2 110 0 150 -1 40 -3 5 -3 -78z"/>
<path d="M3146 1331 c-4 -6 -10 -30 -14 -53 -7 -40 -10 -43 -41 -46 l-34 -3 5
50 c4 38 2 51 -8 51 -14 0 -28 -70 -22 -111 3 -21 8 -24 45 -23 56 1 70 15 79
80 6 54 2 76 -10 55z"/>
<path d="M3180 1321 c0 -12 7 -18 17 -17 14 1 17 -6 14 -39 -1 -22 -4 -42 -4
-45 -1 -3 3 -7 8 -10 6 -3 14 18 19 48 7 41 13 52 27 52 11 0 19 7 19 15 0 11
-12 15 -50 15 -42 0 -50 -3 -50 -19z"/>
<path d="M2938 1321 c-26 -4 -50 -9 -53 -12 -9 -10 -23 -102 -18 -117 5 -11
19 -13 60 -10 29 3 59 10 64 15 18 18 31 104 18 120 -6 7 -14 12 -18 12 -3 -1
-27 -5 -53 -8z m44 -61 c-5 -33 -13 -40 -48 -43 -23 -2 -30 2 -32 21 -6 42 5
53 45 50 34 -3 38 -6 35 -28z"/>
<path d="M2793 1293 c-32 -25 -33 -25 -33 -4 0 11 -6 21 -14 21 -15 0 -21 -17
-31 -92 -6 -39 -4 -48 8 -48 8 0 18 12 21 26 l7 27 23 -22 c12 -11 33 -21 46
-21 l24 0 -27 28 c-15 15 -27 32 -27 36 0 5 17 24 38 42 30 27 33 33 17 33
-11 0 -35 -12 -52 -26z"/>
<path d="M1567 1303 c-3 -4 -8 -36 -12 -70 -6 -54 -5 -63 9 -63 9 0 16 7 16
15 0 11 12 15 50 15 38 0 52 4 60 19 18 34 12 71 -12 80 -31 11 -105 13 -111
4z m97 -41 c10 -17 -12 -33 -40 -30 -18 2 -30 10 -32 21 -3 13 4 17 32 17 19
0 37 -4 40 -8z"/>
<path d="M2131 1301 c-12 -8 -12 -19 0 -78 13 -63 16 -68 42 -71 17 -2 27 1
27 10 0 10 3 9 11 -2 8 -12 9 -11 5 6 -4 11 0 28 7 39 13 17 14 16 20 -14 6
-28 10 -32 33 -29 21 2 34 16 60 63 19 33 34 66 34 73 0 25 -35 7 -60 -32
l-25 -39 -11 39 c-16 56 -39 55 -66 -1 l-23 -47 -10 43 c-11 45 -21 54 -44 40z"/>
<path d="M2396 1297 c-19 -14 -38 -99 -29 -124 6 -15 120 -18 141 -5 29 19 42
126 16 136 -28 11 -110 6 -128 -7z m102 -59 c-3 -31 -6 -33 -45 -36 -41 -3
-43 -2 -43 26 0 37 6 42 52 42 38 0 39 -1 36 -32z"/>
<path d="M2567 1297 c-3 -8 -8 -39 -12 -70 -6 -49 -5 -57 9 -57 9 0 16 6 16
14 0 8 14 15 36 18 29 3 38 1 42 -14 9 -35 29 -18 36 30 14 94 18 87 -55 90
-50 2 -68 -1 -72 -11z m101 -34 c-2 -13 -14 -19 -41 -21 -20 -2 -37 1 -37 5 0
18 25 33 53 33 22 0 28 -4 25 -17z"/>
<path d="M1726 1288 c-10 -33 -22 -118 -18 -123 12 -11 30 -4 35 15 7 29 67
28 74 0 8 -31 38 -21 38 12 1 15 4 30 8 34 4 4 7 22 7 41 l0 33 -70 0 c-48 0
-72 -4 -74 -12z m102 -35 c-4 -20 -54 -31 -70 -15 -17 17 1 32 38 32 28 0 35
-4 32 -17z"/>
<path d="M1885 1253 c-3 -27 -9 -58 -12 -70 -5 -22 -3 -23 65 -23 51 0 71 4
75 14 8 21 -1 26 -52 28 l-46 1 50 6 c37 4 51 11 53 24 3 14 -4 17 -42 17 -26
0 -46 5 -46 11 0 6 19 9 47 7 38 -2 48 0 51 15 3 15 -5 17 -66 17 l-70 0 -7
-47z"/>
<path d="M2027 1216 c-8 -20 2 -26 45 -26 31 0 38 3 38 20 0 17 -7 20 -39 20
-24 0 -41 -5 -44 -14z"/>
<path d="M2170 1129 c0 -8 -107 -10 -369 -7 -203 1 -364 0 -358 -4 5 -3 16 -4
24 -1 7 3 13 0 13 -6 0 -6 -7 -11 -15 -11 -8 0 -15 -6 -15 -12 0 -9 -4 -8 -10
2 -8 12 -10 11 -10 -7 0 -16 -5 -21 -18 -18 -10 2 -24 -5 -30 -16 -10 -16 -9
-19 4 -19 9 0 12 5 8 12 -5 7 -3 8 5 3 9 -5 10 -10 2 -18 -18 -18 -13 -27 14
-27 14 0 25 5 25 10 0 6 7 10 15 10 27 0 16 -29 -12 -33 -16 -2 -3 -4 27 -5
30 0 46 3 35 6 -11 4 -21 14 -21 23 -1 14 10 17 62 18 55 1 64 -1 65 -16 0
-15 2 -15 7 -3 6 14 21 17 47 10 6 -1 20 -1 33 0 12 1 22 -4 22 -12 0 -10 3
-9 10 2 9 13 11 13 20 0 5 -8 10 -18 10 -22 0 -4 -52 -6 -115 -5 -63 2 -111
-1 -107 -4 10 -11 444 -24 677 -22 110 2 311 9 447 18 136 8 261 15 278 15 24
0 31 4 27 14 -3 8 1 17 9 20 24 9 31 7 14 -5 -13 -9 -13 -10 0 -6 8 2 15 8 15
13 0 5 4 15 8 22 5 6 4 12 -2 12 -5 0 -16 6 -23 13 -7 6 -26 17 -42 22 -29 10
-48 35 -26 35 6 0 8 -5 4 -12 -5 -8 -1 -8 12 2 10 8 21 16 23 17 2 2 -16 1
-40 -2 -93 -10 -718 -14 -724 -5 -8 13 -25 13 -25 -1z m-690 -83 c0 -3 -4 -8
-10 -11 -5 -3 -10 -1 -10 4 0 6 5 11 10 11 6 0 10 -2 10 -4z m1085 -42 c0 -17
-8 -19 -63 -19 -35 0 -66 3 -68 7 -3 4 -12 4 -22 1 -14 -6 -15 -4 -4 9 9 11
30 16 69 17 30 0 58 3 61 6 11 11 27 -2 27 -21z m382 20 c-3 -3 -12 -4 -19 -1
-8 3 -5 6 6 6 11 1 17 -2 13 -5z m-1158 -26 c-9 -17 -13 -18 -20 -7 -13 21
-11 25 11 26 17 2 19 -1 9 -19z m61 11 c0 7 4 10 10 6 17 -10 -1 -33 -26 -31
-13 0 -24 2 -24 3 0 1 3 9 6 17 5 13 9 14 20 5 11 -9 14 -9 14 0z m75 -9 c0
-9 -10 -15 -27 -16 -31 -1 -35 5 -16 24 16 16 43 11 43 -8z m349 5 c-4 -8 -11
-12 -16 -9 -6 4 -5 10 3 15 19 12 19 11 13 -6z m90 1 c11 15 14 15 19 1 7 -19
-42 -34 -53 -16 -4 6 -13 8 -19 5 -6 -4 -11 0 -11 10 0 15 2 15 26 -1 24 -16
26 -16 38 1z m-393 -8 c0 -10 2 -10 6 0 6 14 33 16 33 2 0 -5 -6 -10 -12 -11
-7 0 -23 -2 -35 -3 -14 -2 -19 2 -16 11 6 17 23 17 24 1z m114 2 c-3 -5 -13
-10 -21 -10 -8 0 -14 5 -14 10 0 6 9 10 21 10 11 0 17 -4 14 -10z m46 0 c9 13
10 13 6 0 -2 -8 -10 -15 -17 -15 -7 0 -15 7 -17 15 -4 13 -3 13 6 0 10 -13 12
-13 22 0z m74 -18 c-6 -7 -45 9 -45 18 0 4 11 3 24 -3 14 -7 23 -13 21 -15z"/>
<path d="M1900 1000 c0 -5 5 -10 11 -10 5 0 7 5 4 10 -3 6 -8 10 -11 10 -2 0
-4 -4 -4 -10z"/>
<path d="M2978 1133 c7 -3 16 -2 19 1 4 3 -2 6 -13 5 -11 0 -14 -3 -6 -6z"/>
<path d="M3010 1130 c0 -5 5 -10 10 -10 6 0 10 5 10 10 0 6 -4 10 -10 10 -5 0
-10 -4 -10 -10z"/>
<path d="M2968 1113 c6 -2 18 -2 25 0 6 3 1 5 -13 5 -14 0 -19 -2 -12 -5z"/>
<path d="M3457 1113 c-4 -3 -7 -22 -7 -42 0 -26 3 -32 9 -22 8 12 12 12 25 2
14 -12 16 -9 16 28 0 33 -4 41 -18 41 -10 0 -22 -3 -25 -7z m33 -23 c0 -5 -7
-10 -16 -10 -8 0 -12 5 -9 10 3 6 10 10 16 10 5 0 9 -4 9 -10z"/>
<path d="M3395 1074 c-8 -43 -6 -45 25 -37 l25 7 -25 7 -25 6 25 11 c18 8 20
11 8 11 -10 1 -18 5 -18 10 0 5 8 12 18 14 13 4 13 5 -4 6 -17 1 -23 -6 -29
-35z"/>
<path d="M1405 1090 c-3 -5 -1 -10 4 -10 6 0 11 5 11 10 0 6 -2 10 -4 10 -3 0
-8 -4 -11 -10z"/>
<path d="M3176 1083 c-6 -14 -5 -15 5 -6 7 7 10 15 7 18 -3 3 -9 -2 -12 -12z"/>
<path d="M3337 1093 c-14 -13 -6 -33 13 -33 11 0 20 -4 20 -10 0 -5 -9 -10
-20 -10 -11 0 -20 -5 -20 -11 0 -6 7 -8 16 -5 9 3 20 6 25 6 5 0 9 9 9 20 0
13 -7 20 -20 20 -27 0 -25 18 3 23 20 4 20 4 1 6 -11 0 -24 -2 -27 -6z"/>
<path d="M3038 1003 c12 -2 30 -2 40 0 9 3 -1 5 -23 4 -22 0 -30 -2 -17 -4z"/>
<path d="M1797 903 c-4 -3 -7 -13 -7 -22 1 -13 3 -13 11 2 11 19 8 33 -4 20z"/>
<path d="M1840 905 c0 -17 14 -32 30 -33 8 0 26 -4 40 -7 19 -5 22 -4 10 4
-11 8 -12 11 -2 11 7 0 10 5 7 10 -3 6 -1 10 4 10 6 0 11 -8 12 -17 0 -11 3
-13 6 -5 2 6 9 9 15 6 6 -4 9 -1 6 7 -7 20 -85 22 -93 2 -5 -14 -7 -14 -20 3
-8 10 -14 15 -15 9z"/>
<path d="M1980 891 c-12 -24 -13 -31 -1 -31 5 0 12 10 16 23 l7 22 6 -22 7
-22 12 24 c10 23 9 25 -13 25 -13 0 -28 -9 -34 -19z"/>
<path d="M2087 903 c-4 -3 -7 -15 -7 -26 0 -16 3 -17 15 -7 10 9 15 9 15 1 0
-6 15 -11 34 -11 24 0 36 5 39 18 4 16 5 16 6 0 1 -25 14 -22 28 7 11 25 11
25 -42 25 -33 0 -55 -5 -58 -12 -4 -10 -6 -10 -6 0 -1 13 -14 16 -24 5z"/>
<path d="M2240 898 c0 -7 5 -20 11 -28 9 -12 12 -13 16 -1 5 11 7 11 14 0 7
-11 13 -9 28 10 l19 25 4 -25 c4 -23 5 -23 13 -4 5 11 13 23 19 27 6 4 -3 8
-21 8 -17 0 -35 -5 -39 -11 -4 -8 -9 -7 -15 2 -8 12 -11 11 -19 -1 -6 -10 -10
-11 -10 -2 0 6 -4 12 -10 12 -5 0 -10 -6 -10 -12z"/>
</g>
</svg>
